# xmcd
#
# Track frame offsets: 
#        150
#        15880
#        34337
#        53393
#
# Disc length: 1037 seconds
#
# Revision: 0
# Processed by: cddbd v1.5.1PL0 Copyright (c) Steve Scherf et al.
# Submitted via: ExactAudioCopy v0.95a5
#
DISCID=1f040b04
DTITLE=Keith Urban - Sessions@AOL - EP
DYEAR=2005
DGENRE=Country
TTITLE0=Days Go By (Live)
TTITLE1=You're My Better Half (Live)
TTITLE2=Making Memories of Us (Live)
TTITLE3=You'll Think of Me (Live)
EXTD=
EXTT0=
EXTT1=
EXTT2=
EXTT3=
PLAYORDER=
